<?xml version="1.0" encoding="UTF-8"?>
<!DOCTYPE svg PUBLIC "-//W3C//DTD SVG 1.1//EN" "http://www.w3.org/Graphics/SVG/1.1/DTD/svg11.dtd">
<!-- Creator: CorelDRAW X6 -->
<svg xmlns="http://www.w3.org/2000/svg" xml:space="preserve" width="144.34mm" height="216.518mm" version="1.1" shape-rendering="geometricPrecision" text-rendering="geometricPrecision" image-rendering="optimizeQuality" fill-rule="evenodd" clip-rule="evenodd" viewBox="0 0 14434 21652" xmlns:xlink="http://www.w3.org/1999/xlink">
 <g id="Layer_x0020_1">
  <metadata id="CorelCorpID_0Corel-Layer"/>
  <path fill="#00A0E3" d="M934 18997l1469 1507 -148 59c-450,-290 -1460,-984 -1321,-1566zm2468 -5330l-55 20 -380 -233 179 -253 396 137 -140 329zm-201 -617c-404,406 -239,711 193,665 133,-173 178,-162 149,-431l-362 -157 20 -77zm875 4002c255,115 620,427 897,299 -101,-373 -1094,-1012 -1571,-860 0,428 321,403 674,561zm4524 -6320c-66,-66 67,67 0,0zm10 109c175,-125 581,-136 776,-445 -373,189 -378,-196 -830,336l54 109zm28 -2165c39,-39 122,56 37,18 -2,-1 -47,-9 -37,-18zm-166 102c-132,10 -266,-1 -389,-21 88,296 777,-15 884,-157l-252 69 -10 -209 -131 -54 -78 -210 -24 582zm-5967 -588c66,-67 -67,66 0,0zm-150 -225c67,-66 -66,67 0,0zm-238 -237l0 0zm285 191c-294,-381 62,-811 468,-768l182 244c-178,177 -393,514 -650,524zm-427 -808c358,-476 993,-634 1278,592 88,379 -580,514 -857,309 561,-62 958,-688 470,-931 -55,-394 -598,-319 -853,68l-38 -38zm-88 311c40,-364 180,161 225,270l-202 -149 671 887 -19 -197c485,-44 676,-154 778,-659l331 157 2 -180 -191 20c-291,-226 -570,-825 -830,-950 -508,-245 -1068,374 -765,801zm-634 10893c-30,292 1148,974 1423,1147 -351,189 -1424,-647 -1693,-963 -520,-610 -103,-653 -218,-1049 -118,-405 -408,-538 131,-978l1222 216 26 -63 -900 -454c303,-599 2629,-616 3257,-630 97,138 649,471 906,741 118,124 671,938 686,937l-304 -738 80 -41 620 1153 -56 41 -306 -337 -49 33 265 696 -1241 -1074 -54 63c41,469 987,1062 1016,1296l-3135 -1518c52,461 2143,1220 2268,1680 -626,-149 -1435,-541 -2051,-791 -368,-149 -1781,-851 -2060,-534l257 278 -179 82c-42,556 571,756 652,1035l-563 -228zm7985 -383c131,-343 684,-985 1099,-892 -9,47 -594,753 -681,844 -374,393 -280,764 -352,1243l-177 -131 -26 -671 79 -398 58 5zm-2533 -461l-727 -1181 236 -399 259 28 -25 473 211 53c125,340 68,665 46,1026zm-314 -1700c-284,26 -497,-315 -477,-579l171 156 -37 97c94,76 196,237 340,193l3 133zm-1964 -1009c-47,177 -11,267 -20,455l-350 -64 370 -391zm2154 121c-66,67 67,-66 0,0zm49 -18l31 167c-205,191 -272,230 -594,221l-71 -286 634 -102zm-1990 -294l31 31 539 -4 15 238c-198,157 -461,168 -683,28l98 -293zm1240 496c-27,-264 80,-518 327,-595 555,0 556,302 608,782l50 -72 64 298 -207 -105 58 -156 -83 -96c38,-158 54,-248 -51,-380 -226,-26 -362,-71 -511,106l-143 0 -112 218zm-1309 -523c-37,-452 813,-377 813,227 0,224 3,447 -4,670 -94,-136 -229,-289 -159,-470 122,-316 114,-536 -323,-536 -117,0 -220,62 -327,109zm2468 -225c19,-121 716,-710 793,-1363 103,-877 -482,-1007 -578,-1363 836,1 516,1358 865,1790 -65,490 -180,715 -597,970l321 -482 -136 -115 -668 563zm-5619 7333l1309 0c1096,-1256 1626,-1478 225,0l1907 0c33,-66 370,-1126 368,-1156 -6,-155 -142,-384 -215,-531 -154,-309 -64,-257 -106,-591 784,375 1387,-530 1368,459l934 430 -135 -900 591 8c434,0 195,1095 585,1377 155,-210 285,-975 794,-1072 47,985 171,501 461,958 71,112 67,420 126,585 51,145 217,285 315,433l934 0c211,-460 749,-3502 487,-3889 -262,98 -300,855 -300,1159 0,683 25,1169 -49,1837l-55 -6c-28,-312 -100,-1450 -387,-1535l-53 -7 -99 869c-252,-486 3,-1671 -546,-1674 -137,94 -157,182 -157,366l0 225c0,690 241,1092 374,1645 -277,-86 -712,-1265 -714,-1455 -6,-585 273,-1130 709,-1505 639,-549 798,-485 1617,-448 377,17 1397,350 1370,825 -1352,-650 -1257,189 -1445,1128 -173,861 -400,1631 -602,2465l3403 0 0 -1945c-225,-463 -469,-1256 -559,-1759 -55,-307 -316,-1699 -385,-1896 -219,-622 -756,-963 -507,-1499 662,-1422 1247,-897 1155,-3446 -61,-1695 -1938,-1458 -2588,-1978 -443,-354 -647,-216 -788,-372 -304,-338 -723,105 -781,-197l2468 -479 -1012 -294 -21 -49 2806 -1321 8 -97 -1578 -355 -19 45 1450 -889c-360,-360 -1727,-425 -2236,-451l58 -51 -263 43c-301,-963 -743,-1715 -1920,-1708 0,-1147 -335,-2437 -1458,-2954 2,9 283,472 329,568 100,206 143,425 218,643 191,556 163,883 163,1481 -182,-61 -806,-2242 -3440,-2243 986,892 1197,1801 1197,3141 -15,-10 -721,-983 -827,-1118 -241,-305 -692,-684 -1043,-864 60,162 1641,1213 1720,2169 -270,-176 -895,-337 -1234,-337l-411 0c-486,0 -1875,395 -2135,789 453,255 2216,1040 2359,1567 -91,-42 -594,-149 -710,-149l-561 0c-274,0 -1093,211 -1275,339l900 277 -42 38 334 1207 43 -4 -84 -473c289,411 639,359 996,6 221,462 364,885 737,1336 314,378 864,262 1116,764 -202,269 -484,275 -401,678 69,338 -42,460 517,515 -304,364 -897,79 -897,-383 0,-660 468,-751 524,-897 -574,138 -434,612 -612,855 -268,-219 -184,-700 13,-959 -591,104 7,1246 194,1487 -322,421 -356,381 -832,378 -281,-1 -504,390 -723,542 -586,406 -1347,-67 -1585,-543 188,-434 384,-886 577,-1325 155,-355 737,-1070 761,-1146 -797,529 -955,1812 -1428,2496l-152 -15c196,-249 322,-288 161,-612 -59,-121 -257,-456 -371,-480l145 210 -750 -134c221,-175 524,-26 787,-268 168,-155 381,-753 80,-818l66 8 -85 742c-52,-1 -67,0 -104,-38 417,-472 -526,-852 -625,-1011l628 118c22,-157 -1584,-821 -1603,216 -8,415 246,431 359,639 -27,340 -396,500 -277,1219 8,49 402,1064 414,1082 115,56 831,298 999,350 348,108 713,-31 1090,-91 204,-33 118,-178 315,-300 339,-211 948,-165 1232,-490 1075,-1228 2923,1249 2700,1848l-90 -261 -88 -13 -202 578 -273 -522c-496,286 -468,539 -164,960 -381,157 -561,-384 -466,-682 112,-350 501,-418 735,-583l-38 -66 -644 369c-154,-131 -24,-462 -4,-633l-81 -7 -79 940c-213,91 -697,-108 -937,-279 -305,-217 -313,-702 -464,-919l-80 38 527 1083 76 -37c-826,-17 -906,-380 -1262,-857 -173,326 533,756 800,834 1267,369 1161,-107 1531,880 -218,-76 -577,157 -583,452 395,-442 270,-297 837,-382l161 1079 -51 8c-150,-208 -250,-968 -896,-485 -364,-465 -382,309 -530,559 -72,-917 -272,-663 -334,-925l560 213 -18 42c-54,-462 -1125,-441 -1197,181l-126 -549 162 252 68 -43 -479 -775c-109,67 -244,22 -353,74 28,-247 124,-221 364,-221 319,0 1906,437 1974,37 -480,255 -1546,-171 -2275,-85 -411,-626 -233,-671 -266,-1255l-48 -7 -151 1048 -55 -8c728,66 236,772 -14,1088 -550,-1037 -902,211 -87,291l82 757 51 -6c-854,132 -1436,99 -2233,540 -328,181 -1097,1336 -1091,1710 7,428 439,1729 483,2362 126,1845 189,851 937,1867zm2279 -7862l405 241c48,417 -329,386 -580,132l-1 -207 176 -166zm8716 196c-455,992 -101,559 -772,986 -105,67 -840,323 -1921,323l191 -511c1274,201 1395,-496 2502,-798zm-524 486c0,125 0,-125 0,0zm-7923 -902c405,324 299,1004 -2,1391 -147,-288 -76,-248 -36,-558l160 -21 79 -343 -457 -341 -113 103c24,-185 213,-209 369,-231zm32 925l0 0zm3067 -1376c-57,81 -53,371 181,374l-181 -374zm10 -203l48 21 197 538c-85,105 -293,150 -416,203 -159,-244 -140,-313 -135,-592l306 -170zm2832 546c0,-490 -208,-638 -299,-972 1181,2 1221,1888 262,1907 46,-313 41,-618 37,-935zm149 -1053c121,-985 2340,-1544 2081,291 -57,400 -568,1441 -1008,849 -943,-1267 -659,-720 -1073,-1140zm113 -218c-67,66 66,-67 0,0zm1691 1084c122,57 -127,-100 -14,-10 2,1 14,10 14,10zm-3621 -419l-300 -820 846 330 102 -57c265,255 650,9 646,1637l-372 -1429 -46 33 -176 -53 45 220c-311,384 -427,166 -745,139zm2074 -951l-71 -28c847,-2251 -257,-151 -747,471l-325 -149 639 -896 -43 -51 -1140 658c1462,-1402 2715,-2515 1687,-5zm118 -163c1181,-1336 964,-1697 881,-413 -562,60 -807,487 -881,413zm1393 -383c38,-280 749,-1009 1175,-540 314,346 535,1313 84,1487 -283,-213 -294,-476 -458,-626 -148,-135 -696,-245 -801,-321zm-5141 -846l388 769c-160,-41 -373,-459 -540,-412l74 234 -576 -395 35 -162c145,35 292,60 452,90l167 -124zm-5040 1043c-289,-16 -210,-488 -230,-708 240,-21 451,468 445,704l-215 4zm496 -833c-162,-205 -149,-469 24,-629 286,77 321,413 190,601l-214 28zm4407 -1340c336,204 605,616 158,858 -244,-249 -521,-487 -400,-797l242 -61zm3186 631c258,754 -1159,2000 -1686,1946 -408,-41 -1607,-1617 -876,-2130l63 -43 578 850 -39 27c335,102 552,-396 810,-471 61,-18 1146,-180 1150,-179zm-8019 -147c283,140 626,47 838,257 259,257 221,578 -123,608l146 -235c-107,-235 -99,-441 -411,-478 -313,85 -153,568 -109,751l-330 -2 -94 -170c84,20 217,82 299,50l-99 -566 -47 1 -174 230c-4,-194 -10,-288 104,-446zm8181 -492l313 119 -605 250 292 -369zm-1676 1050l-53 -63 -15 51 -446 -135 -214 -848c347,202 533,480 959,480 218,0 260,-96 449,-112l31 41 -714 541 3 45zm1189 -1125c93,182 -58,506 -123,697l-502 97 625 -794zm-2176 -230l209 756 -278 -164 41 -21 -155 -459 183 -112zm-5326 466c-233,-153 -147,-564 34,-714l185 77c9,207 -24,408 -49,613l-170 24zm-574 -530c-52,-126 123,-533 312,-592 107,30 675,418 749,522 220,315 133,674 -300,675 92,-341 387,-516 -72,-864l-141 30 10 -40 -398 -85c-37,123 -105,239 -160,354zm9342 -1589l245 175c-18,656 -248,615 -703,775l-122 -82 364 -114c212,-210 333,-384 116,-653l100 -101zm-4702 -352c390,677 42,903 756,1049l-45 100c-421,-73 -1170,-509 -711,-1149zm-112 -642c521,78 769,1132 823,1572 -406,-298 -310,-895 -933,-1415l110 -157zm4647 1019c26,-303 371,-702 673,-711l0 112 -673 599zm-5769 -857c41,401 -167,663 -585,632 -314,-23 -437,-382 -565,-635 193,89 244,285 338,471 77,-67 234,-65 334,-83l19 42 459 -427zm3194 -448l74 -14 542 1531 89 16 -146 246 320 82 69 -140 233 35 76 -314 460 -172c526,611 -160,635 -523,806l397 -19 -412 162 12 60 538 -69c99,369 -512,746 -747,905 -520,352 -649,189 -1130,-98 -451,-269 -689,-253 -856,-789 -90,-288 -281,-947 -271,-1230l126 27 20 -38 -149 -132c39,-105 65,-263 152,-335l321 358c-422,527 114,1124 724,1137 -17,-25 -1240,-505 -682,-1094 310,-123 527,207 713,396 -132,190 -57,458 194,318 189,304 280,-4 340,-221 -636,-266 -576,-878 -484,-1414zm-1165 1641c-66,67 66,-66 0,0zm75 299c-67,67 66,-66 0,0zm-2203 -1491l-643 371c-558,-392 440,-1058 643,-371zm4269 965c50,-475 223,-876 520,-1296 118,-4 312,-48 410,17l-538 831c161,135 -223,325 -392,448z"/>
 </g>
</svg>